<?xml version="1.0" encoding="UTF-8"?>
<svg xmlns="http://www.w3.org/2000/svg" xmlns:xlink="http://www.w3.org/1999/xlink" viewBox="0 0 192 192" width="192px" height="192px">
<g id="surface48501014">
<path style=" stroke:none;fill-rule:nonzero;fill:rgb(100%,100%,100%);fill-opacity:1;" d="M 87.199219 16.800781 C 50.398438 20.800781 20.800781 50.398438 16.800781 86.398438 C 12.800781 124 34.398438 157.601562 67.199219 170.398438 C 69.601562 171.199219 72 169.601562 72 166.398438 L 72 153.601562 C 72 153.601562 68.800781 154.398438 64.800781 154.398438 C 53.601562 154.398438 48.800781 144.800781 48 139.199219 C 47.199219 136 45.601562 133.601562 43.199219 131.199219 C 40.800781 130.398438 40 130.398438 40 129.601562 C 40 128 42.398438 128 43.199219 128 C 48 128 52 133.601562 53.601562 136 C 57.601562 142.398438 62.398438 144 64.800781 144 C 68 144 70.398438 143.199219 72 142.398438 C 72.800781 136.800781 75.199219 131.199219 80 128 C 61.601562 124 48 113.601562 48 96 C 48 87.199219 52 78.398438 57.601562 72 C 56.800781 70.398438 56 66.398438 56 60.800781 C 56 57.601562 56 52.800781 58.398438 48 C 58.398438 48 69.601562 48 80.800781 58.398438 C 84.800781 56.800781 90.398438 56 96 56 C 101.601562 56 107.199219 56.800781 112 58.398438 C 122.398438 48 134.398438 48 134.398438 48 C 136 52.800781 136 57.601562 136 60.800781 C 136 67.199219 135.199219 70.398438 134.398438 72 C 140 78.398438 144 86.398438 144 96 C 144 113.601562 130.398438 124 112 128 C 116.800781 132 120 139.199219 120 146.398438 L 120 167.199219 C 120 169.601562 122.398438 172 125.601562 171.199219 C 155.199219 159.199219 176 130.398438 176 96.800781 C 176 48.800781 135.199219 11.199219 87.199219 16.800781 Z M 87.199219 16.800781 "/>
</g>
</svg>
